<svg width="24" height="24" viewBox="0 0 24 24" fill="none" xmlns="http://www.w3.org/2000/svg">
<path fill-rule="evenodd" clip-rule="evenodd" d="M1.65028 3.78405C2.00964 3.18788 3.99086 1.02368 5.40269 1.089C5.82507 1.12517 6.19844 1.37951 6.50181 1.67585H6.50298C7.19838 2.35719 9.1936 4.92857 9.30561 5.46992C9.58215 6.79761 7.99881 7.56295 8.48302 8.90115C9.71751 11.9216 11.8446 14.0486 14.8666 15.2817C16.2037 15.767 16.9691 14.1851 18.2969 14.4604C18.8383 14.5736 21.4112 16.5674 22.0913 17.2639C22.3866 17.5661 22.6432 17.9406 22.6782 18.363C22.7307 19.8504 20.4322 21.8583 19.9841 22.115C18.927 22.8722 17.5478 22.8582 15.8665 22.0766C11.1749 20.1247 3.677 12.7687 1.68878 7.90013C0.928028 6.22826 0.876689 4.83991 1.65028 3.78405Z" stroke="#E42016" stroke-linecap="round" stroke-linejoin="round"/>
<path opacity="0.5" d="M14.8009 1.37158C19.0067 1.8385 22.3274 5.15585 22.8 9.36047" stroke="#E42016" stroke-linecap="round" stroke-linejoin="round"/>
<path opacity="0.5" d="M14.8009 5.39667C16.8118 5.78861 18.383 7.35981 18.7749 9.37066" stroke="#E42016" stroke-linecap="round" stroke-linejoin="round"/>
</svg>
